<?xml version="1.0" encoding="utf-8"?>
<!-- Generator: Adobe Illustrator 22.0.1, SVG Export Plug-In . SVG Version: 6.00 Build 0)  -->
<svg version="1.1" id="Слой_1" xmlns="http://www.w3.org/2000/svg" xmlns:xlink="http://www.w3.org/1999/xlink" x="0px" y="0px"
	 viewBox="0 0 772.8 772.8" style="enable-background:new 0 0 772.8 772.8;" xml:space="preserve">
<style type="text/css">
	.st0{fill:#003866;}
	.st1{display:none;}
	.st2{display:inline;}
	.st3{fill:none;stroke:#003866;stroke-width:4;stroke-miterlimit:10;}
	.st4{display:inline;fill:#003866;}
	.st5{fill:none;stroke:#003866;stroke-width:6;stroke-miterlimit:10;}
</style>
<g id="Слой_1_1_">
	<path class="st0" d="M261.1,203c-0.4-4.5-0.5-10.6-0.5-18.6c0-8,0.6-16.5,1.9-25.7c1.2-9.1,3.4-18.6,6.5-28.1
		c2.9-9.5,7.2-18.2,12.5-26c5.4-7.8,12.4-14.3,20.9-19.3c8.6-5,19-7.8,31.4-8.1c8.9,0.4,16.6,3,23.3,8.1c5.7,4.5,10.7,11.4,15,20.9
		c4.3,9.5,5.9,23.3,4.9,41.4c-1.3,14-3.9,26.8-8.1,38.6c-3.5,10.1-9,20-16.5,29.5c-7.5,9.5-17.5,16.2-30.2,20
		c1.6-18.1,3.2-36.1,4.9-54.3c1.7-18.1,3.7-35.9,5.9-53.7c0.4-1.6-0.2-3-1.4-4.3c-1.3-1.2-2.7-1.7-4.3-1.4
		c-3.8,0.6-8.7,1.9-14.4,3.8c-5.8,1.9-11.7,4.8-17.4,9c-9.1,6.4-14.2,15.4-14.7,27.1c0,5.7-0.2,13.2-0.5,22.3
		c-0.4,9.1-0.5,19.4-0.7,30.4c-0.2,11.1-0.3,22.8-0.3,35.2c0,12.4,0.2,24.8,0.5,37.1v23.3c0,6.4,0.1,13.2,0.3,20.4
		c0.2,7.3,0.5,13.6,1.2,19c0,1.9,0.8,3.9,2.4,6.2c2.2,2.2,5.8,5,10.7,8.6c4.8,3.5,11.7,6.2,20.3,8.1c1,0.4,1.8,0.2,2.7-0.5
		c0.8-0.6,1-1.4,0.7-2.4c-0.6-12.6-0.8-25.8-0.5-39.3c0.4-13.4,0.8-27.2,1.4-41.2c0.4-6.4,0.6-12.5,1-18.7
		c0.4-6.2,0.8-12.5,1.4-18.7c11.4-0.6,21.7-2.5,30.7-5.5c9-2.9,16.9-6.8,23.9-11.1c6.8-4.5,12.5-9.3,17.4-14.7
		c4.8-5.4,8.7-10.9,11.9-16.6c7.6-13,12.4-27.6,14.3-43.8c1.2-12.6,0.9-25-1.2-36.9c-2.1-11.9-6.3-22.5-12.5-31.9
		c-6.4-9.3-15.2-17-26.4-23c-11.2-6-25.3-9.3-42.1-10.1c-19-1-36,2.2-50.9,9.5c-14.9,7.3-27.4,16.9-37.4,29.1
		c-10,12.1-17.4,25.9-22.2,41.4s-6.6,31.6-5.2,48.1c0.6,4.1,2.2,7.4,4.8,10c2.6,2.6,6.1,5.3,10.7,8.3c4.7,3,10,4.8,16,5.5
		c2.2,0.6,4.1,0.2,5.7-1.4C260.2,207.1,261.1,205.2,261.1,203z"/>
	<path class="st0" d="M574.1,427.8c-1-6.2-3.4-11.6-7.3-16.3c-7.5-9-16.8-15.8-28-20.7c-1.4-1-2.9-0.9-4.7,0.3
		c-1.6,1.1-2.7,2.8-2.7,5c-0.8,13.8-1.9,28.1-3.3,43c-1.4,14.9-3.4,30.3-5.9,46.3c-0.8,5.3-1.7,11.1-2.9,17.4
		c-1,5.3-2.5,11.5-4.2,18.6c-1.7,7-3.7,14.7-6.1,23c-0.9,2.7-2.7,7.2-5.4,13.4c-2.7,6.3-6.2,12.5-10.6,18.7
		c-4.4,6.3-9.3,11.5-15.1,15.9c-5.8,4.4-12.2,5.9-19.4,4.8c-5.7-0.8-9.4-3.6-11.1-8.3c-1.8-4.8-2.4-10.7-1.7-18.1
		c0.7-7.3,2.5-15.6,5.2-24.9c2.9-9.3,6-18.9,9.4-28.9c3.5-10,7.2-20,11.3-30s7.8-19.6,10.8-28.6c5.7-15.4,9.3-29.7,11.1-43
		c1.6-13.3,1.4-25.1-0.9-35.6c-1.5-6.8-4.7-16.7-13.4-26c0,0-10.3-10.7-26-14.7c-5-1.3-9.7-1.4-9.7-1.4c-2.9-0.1-4.9,0.2-7.1,0.4
		c-3.2,0.4-7.6,1-12.8,2.6c-3.8,1-7.9,2.2-12,3.5c-5.8,1.9-11.1,4-16,6.1c-3.4-7.2-6.7-13.7-9.7-19.4s-5.6-10.5-7.8-14.5
		c-2.9-5.2-4.9-10.2-6.2-14.9c-1.2-4.8-2.1-9-2.5-12.6c-0.5-4.3-0.4-8.3,0-12c0.9-8.5,2.7-15.3,5.2-20.4c2.7-5.1,6.2-7.7,10.7-7.4
		c2.6,0.1,4.5,1.2,5.6,3.4c1.2,2.2,2,4.5,2.6,6.8c0.7,2.9,1,6,0.9,9.4c-0.1,3.1,0.1,5.9,0.5,8.6c0.5,2.3,1.2,4.3,2.4,6
		c1,1.7,2.9,2.6,5.4,2.4c1.4,0.1,2.6-0.4,3.5-1.1c0.9-0.8,1.6-1.6,2.3-2.5c0.6-1.1,1-2.4,1-3.7c0.5-3.9,0-8.1-1.2-12.4
		c-1.2-4.3-3-8.2-5.5-11.7c-2.5-3.5-5.5-6.4-9.2-8.7c-3.7-2.3-7.9-3.3-12.5-3.2c-8.3,0.3-14.7,3.7-19.6,10.3
		c-4.8,6.7-8,13.6-9.8,20.9c-0.7,3.1-1.4,7.3-2.2,12.6c-0.8,5.4-1.1,10.9-1,16.5c0,0.9,0.1,3.1,0.4,6.8c0.3,3.7,0.9,8.4,1.8,14.2
		c0.9,5.8,2.5,12.5,4.6,20.6c2.1,8,4.9,16.8,8.6,26.3C352.5,380.2,344,390,338,400c-5.9,10-10.2,19-12.7,27.2
		c-3.2,9.5-4.8,19-4.6,28.3c-0.1,9.3,1.3,18.4,4.3,27.2c2.9,8.8,8.4,16.1,16.5,21.8c8.8,6.3,18.8,8.8,30,7.6c1.6,0.1,4.3-0.3,7.7-1
		c3.4-0.7,7-2.1,11-4c3.9-2,7.9-4.8,11.9-8.5c4-3.7,7.3-8.6,10.1-14.7c4.8-9.4,7.8-19.6,8.7-30.3c0.9-10.7,0.5-21.6-1.3-32.4
		c-1.7-10.8-4.5-21.6-8.1-32c-3.7-10.5-7.7-20.4-11.9-29.7c2.3-1,5.6-2.4,9.5-3.9c4.8-1.8,7.1-2.8,10-3.7c1-0.4,7.3-2.3,15.6-3.2
		c2.9-0.4,5.1-0.5,7.9,0.1s4.8,1.5,5.5,1.8c6.4,3.5,5.3,18.9,5.1,21.7c-0.9,11.6-3.2,25.8-7,42.2c-3.8,16.5-8.6,34.5-14.3,53.9
		c-5.7,19.4-11,38.1-16,56.3c-5.4,18.6-6.9,33.6-4.8,45c2.3,11.2,5.8,20.2,10.6,26.6c5.7,7.2,12.8,12.6,21.6,16
		c9.8,2.9,18.4,3.3,25.8,1c7.4-2.3,13.9-5.7,19.3-10.4c-6.5,14.5-14,28.1-22.5,40.9c-8.6,12.6-18.4,23.1-29.3,31.3
		c-8.3,5.8-16.9,10.1-25.9,12.7c-7.6,2.4-15.9,3.6-24.8,3.7c-8.9,0.2-17.3-2.9-25.1-8.9c-4.2-3.1-7.3-7.1-9.2-12.1
		c-1.7-4.3-2.5-9.9-2.2-16.9s2.9-15.8,8-26c2.8-5.9,6.3-10.8,10.5-14.8c4.2-4,8.4-7.2,12.6-9.9c4.2-2.6,8.4-4.5,12.3-5.8
		c4-1.3,7.1-2.2,9.5-2.7c1.4-0.4,2.3-1,2.7-2.2c0.4-1,0.2-2-0.6-2.8c-2.3-3-4.8-5.3-7.9-6.9c-2.9-1.6-5.9-2.7-9-3.3
		c-3.1-0.6-6.1-1-9-1c-2.9-0.1-5.3,0-7.3,0.3c-3.7,0.9-6.9,2.4-9.6,4.4c-5.8,4.4-10.3,9.2-13.6,14.7c-3.4,5.5-6,10.5-7.9,14.9
		c-2.4,5.3-3.9,10.6-4.8,16.1c-1.6,8.4-2.2,16.5-1.5,24.4c0.6,6.7,2.5,13.6,5.5,21c3,7.4,8.6,13.9,16.5,19.4
		c11.8,8.8,23.8,13.9,35.7,15.2c12.1,1.3,22.9,1,32.7-1c11.4-2.3,22.6-6.1,33.4-11.7c10-6.1,19.2-13.5,27.8-22.3
		c8.6-8.8,16.3-18.5,23.2-29.1c6.9-10.6,13.2-21.6,18.8-32.8c5.7-11.3,10.5-22.4,14.5-33.3c10-25.5,18-52.7,24.1-81.5
		c3.5-17.5,6.4-33.9,8.6-49.7C575.2,440.2,575,433.9,574.1,427.8z M383.2,488.5c-2.9,8.1-8.7,12.5-17.3,13.4
		c-5.7,0-10.9-1.1-15.7-3.4c-4.3-2-8.4-5.3-12.3-10.1c-3.9-4.8-6.7-11.6-8.1-20.7c-0.5-3.1-0.8-6.2-0.6-9.1c0.2-2.9,0.4-5.6,0.6-7.9
		c0.3-2.9,0.6-5.5,0.9-8.1c2-13.6,6.9-26.8,14.9-39.6c2.8-4,5.8-7.8,9.1-11.5c3.2-3.7,6.3-6.7,9.1-8.9c5.4,12,10.1,24.7,14.3,38.3
		c4.1,13.6,6.8,26.2,7.9,37.8C387,470.5,386.1,480.4,383.2,488.5z"/>
	<path class="st0" d="M312.8,515.9c-3.9-1.9-8.7-2.6-14.3-1.8c-3.4,0.6-6.4,1.6-8.9,3.1c-2.2,1.3-4.4,3.2-6.4,5.6
		c-2,2.5-3.1,5.6-3.5,9.7c-0.2,2-0.2,4.1,0.2,6.2c0.2,1.8,0.6,3.8,1.1,6c0.6,2.2,1.5,4.3,2.7,6.3c-1.5,0.5-2.9,0.9-4.7,1
		c-1.6,0.3-3.5,0.3-5.5,0.1c-2.9-0.1-5.2-0.5-7-1.2c-1.8-0.7-3.3-1.6-4.4-2.7c-1.1-1-1.9-2.1-2.4-3.1c-0.5-1.1-0.8-2.2-1-3.2
		c-0.2-1.1-0.3-2.2-0.2-3.1c0.1-0.8,0.4-1.5,0.7-2.3c0.4-0.7,1-1.1,2-1.4c0.9-0.1,1.6,0.2,2.4,1c0.7,0.7,1.3,1.6,1.8,2.9
		c0.5,1.3,0.9,2.7,1,4.2c0.3,1.6,0.4,3.2,0.4,4.8c0,0.3,0.2,0.5,0.5,0.5c0.5,0,1.3-0.1,2.5-0.3s2.3-0.7,3.3-1.5
		c1-0.7,1.7-1.6,1.9-2.7c0.3-1.1,0.1-2.3-0.4-3.3c-0.4-0.8-0.9-1.6-1.6-2.6c-0.7-0.9-1.6-1.7-2.7-2.6c-1.1-0.8-2.4-1.4-3.9-1.8
		c-1.6-0.5-3.3-0.5-5.3-0.4c-1.2,0.2-2.4,0.6-3.3,1.3c-0.8,0.6-1.5,1.5-2.3,2.7c-0.7,1.1-1,2.7-0.8,4.7c0.1,2,0.8,3.8,1.9,5.3
		c1.2,1.6,2.7,2.9,4.5,3.9c1.7,1.1,3.7,1.9,5.9,2.5s4.3,0.8,6.5,0.8c1-0.1,2.2-0.3,3.5-0.5c1-0.2,2.3-0.4,3.5-0.6
		c1.3-0.2,2.7-0.5,3.9-0.9c1.6,2.1,3.7,3.9,6.2,5.5c2.6,1.6,5.7,2.5,9.5,2.7c1.7,0.1,3.3-0.1,4.8-0.5c1.2-0.3,2.5-0.9,3.5-1.6
		c1-0.8,1.6-2,1.8-3.7c0.2-1.7,0-3.2-0.6-4.5c-0.5-1-1.4-2-2.7-2.9c-1.3-0.9-3.4-1.3-6.2-1.2c-2.3,0.1-4.4,0.4-6.3,0.9
		c-1.8,0.5-3.7,1-5.2,1.7c-0.8-1.6-1.5-3.5-2-5.7c-0.6-2.2-1-4.5-1.1-6.9c-0.2-3.1,0.1-6,1-8.5c0.8-2.5,2-4.6,3.5-6.2
		c1.6-1.6,3.3-2.9,5.4-3.9c2.1-0.9,4.3-1.4,6.6-1.5c2.3,0,4.7,0.5,7,1.3c2.5,0.9,4.8,2.1,6.9,3.7c2.2,1.6,4.2,3.6,6,5.8
		c1.8,2.2,3.4,4.7,4.6,7.3l2.3-1.1c-1.9-4-4.4-7.5-7.2-10.6C319.9,520,316.7,517.9,312.8,515.9z M296.1,548.8
		c1.6-0.5,2.9-0.6,4.4-0.6c1.6,0,3,0.6,4.2,1.7c1.1,1.1,1.7,2.5,1.7,3.7c0,1-0.2,1.7-0.6,2.5c-0.4,0.6-1,1.1-1.7,1.6
		c-0.8,0.5-2,0.7-3.6,0.6c-3.7-0.2-7-2.7-10-7.7C292.6,549.8,294.5,549.1,296.1,548.8z"/>
	<path class="st0" d="M242.8,280.8c-1.2-2.3-3-4.5-5.3-6.7c-2.3-2.1-5.5-3.4-9.5-3.9c-2-0.3-4.1-0.4-6.2-0.2c-1.8,0.1-3.8,0.5-6,0.9
		c-2.2,0.5-4.4,1.3-6.4,2.5c-0.5-1.5-0.7-3-0.9-4.7c-0.2-1.6-0.1-3.5,0.2-5.5c0.3-2.9,0.8-5.2,1.6-6.9c0.8-1.8,1.7-3.2,2.8-4.3
		c1-1,2.2-1.8,3.3-2.3c1.1-0.5,2.2-0.7,3.3-0.9s2.2-0.2,3.1,0c0.8,0.1,1.5,0.5,2.2,0.8c0.7,0.5,1.1,1.1,1.3,2.1
		c0.1,0.9-0.3,1.6-1,2.4s-1.7,1.2-2.9,1.6c-1.2,0.5-2.7,0.7-4.2,0.9c-1.6,0.2-3.2,0.2-4.8,0.2c-0.3,0-0.5,0.1-0.5,0.5
		c0,0.5,0,1.3,0.2,2.5s0.5,2.3,1.3,3.4c0.6,1,1.5,1.7,2.7,2.1c1.1,0.3,2.3,0.3,3.3-0.2c0.8-0.4,1.6-0.9,2.7-1.5
		c1-0.6,1.8-1.5,2.7-2.5s1.5-2.3,2-3.8c0.5-1.5,0.7-3.3,0.6-5.3c-0.2-1.2-0.5-2.4-1.1-3.4c-0.5-0.8-1.4-1.6-2.6-2.4
		c-1.2-0.8-2.7-1.1-4.6-1c-2,0-3.8,0.5-5.4,1.6c-1.6,1.1-2.9,2.6-4.2,4.3c-1.2,1.7-2.1,3.7-2.7,5.8s-1,4.3-1.1,6.4
		c0.1,1,0.2,2.2,0.3,3.5c0.2,1,0.3,2.3,0.5,3.6c0.1,1.3,0.4,2.7,0.7,4c-2.2,1.6-4.1,3.5-5.8,5.9c-1.6,2.5-2.7,5.6-3,9.4
		c-0.2,1.7-0.1,3.3,0.2,4.8c0.3,1.2,0.7,2.5,1.5,3.6c0.8,1.1,1.9,1.7,3.6,2c1.7,0.3,3.2,0.2,4.5-0.4c1-0.5,2.1-1.3,3-2.7
		c1-1.3,1.5-3.3,1.5-6.1c0-2.3-0.2-4.5-0.6-6.3c-0.5-1.9-0.9-3.7-1.5-5.3c1.6-0.7,3.6-1.3,5.8-1.7c2.2-0.5,4.6-0.8,7-0.8
		c3.1-0.1,5.9,0.5,8.4,1.3c2.5,1,4.5,2.2,6,3.8c1.6,1.6,2.8,3.5,3.7,5.6s1.2,4.3,1.2,6.7c-0.1,2.3-0.6,4.7-1.6,6.9
		c-1,2.4-2.4,4.7-4.1,6.7c-1.7,2.1-3.7,4-6,5.8c-2.3,1.7-4.8,3.1-7.6,4.2l1,2.4c4.1-1.7,7.8-3.9,10.8-6.8c2.7-2.4,4.9-5.5,7-9.3
		s2.9-8.6,2.6-14.2C245.1,286.6,244.2,283.5,242.8,280.8z M211.4,290.1c-0.1,1.6-0.7,2.9-1.9,4.1c-1.2,1.1-2.5,1.6-3.8,1.6
		c-1-0.1-1.7-0.3-2.5-0.7c-0.5-0.5-1-1-1.5-1.8c-0.5-0.8-0.6-2-0.5-3.7c0.4-3.7,3-6.9,8.1-9.6c0.7,2.3,1.1,4.2,1.6,5.7
		C211.3,287.4,211.4,288.8,211.4,290.1z"/>
</g>
<g id="Слой_2_1_" class="st1">
	<g class="st2">
		<path class="st3" d="M4.8,159.4v-78c0,0-8-81,77-77"/>
		<path class="st3" d="M769.6,612.1v79.4c0,0,8.1,82.4-78.4,78.4"/>
		<path class="st3" d="M769.6,160.1v-78c0,0,8.1-81-78.4-77"/>
		<path class="st3" d="M5.2,603.7v83.6c0,0-8.7,86.9,84,82.6"/>
	</g>
</g>
<g id="Слой_3" class="st1">
	<path class="st4" d="M146,8.6H97C48.3,8.6,8.7,48.2,8.7,96.9v39.8h4V96.9c0-46.5,37.8-84.3,84.3-84.3h49V8.6z"/>
	<path class="st4" d="M12.7,676.7v-33.6c-1.3,0-2.7-0.1-4-0.1v33.6C8.7,725.4,48.3,765,97,765h49v-4H97
		C50.5,761,12.7,723.2,12.7,676.7z"/>
	<path class="st4" d="M761.1,634.8v42c0,46.5-37.8,84.3-84.3,84.3H624v4h52.9c48.7,0,88.3-39.6,88.3-88.3V635
		C763.8,634.9,762.5,634.8,761.1,634.8z"/>
	<path class="st4" d="M761.1,96.9v39.8h4V96.9c0-48.7-39.6-88.3-88.3-88.3h-50.5v4h50.5C723.3,12.6,761.1,50.4,761.1,96.9z"/>
</g>
<path class="st5" d="M675.4,768.4h-578c-51.2,0-93-41.8-93-93v-578c0-51.2,41.8-93,93-93h578c51.2,0,93,41.8,93,93v578
	C768.4,726.5,726.5,768.4,675.4,768.4z"/>
</svg>
