<?xml version="1.0" encoding="utf-8"?>
<!-- Generator: Adobe Illustrator 22.0.1, SVG Export Plug-In . SVG Version: 6.00 Build 0)  -->
<svg version="1.1" 
	xmlns="http://www.w3.org/2000/svg" 
	xmlns:xlink="http://www.w3.org/1999/xlink" x="0px" y="0px" viewBox="0 0 772.8 772.8" style="enable-background:new 0 0 772.8 772.8;" xml:space="preserve">
	<style type="text/css">
	.st0{fill:#003866;}
	.st1{display:none;}
	.st2{display:inline;}
	.st3{fill:none;stroke:#003866;stroke-width:4;stroke-miterlimit:10;}
	.st4{display:inline;fill:#003866;}
	</style>
	<g id="Слой_1">
		<path class="st0" d="M249.2,186c-0.4-4.9-0.5-11.6-0.5-20.3s0.7-18,2.1-28.1c1.3-10,3.7-20.3,7.1-30.7
			c3.2-10.4,7.9-19.9,13.7-28.4c5.9-8.5,13.6-15.6,22.9-21.1c9.4-5.5,20.8-8.5,34.4-8.9c9.7,0.4,18.2,3.3,25.5,8.9
			c6.2,4.9,11.7,12.5,16.4,22.9c4.7,10.4,6.5,25.5,5.4,45.3c-1.4,15.3-4.3,29.3-8.9,42.2c-3.8,11.1-9.8,21.9-18,32.3
			s-19.2,17.7-33,21.9c1.7-19.8,3.5-39.5,5.4-59.4c1.9-19.8,4.1-39.3,6.5-58.8c0.4-1.7-0.2-3.3-1.5-4.7c-1.4-1.3-3-1.9-4.7-1.5
			c-4.2,0.7-9.5,2.1-15.8,4.2s-12.8,5.3-19,9.9c-10,7-15.5,16.8-16.1,29.7c0,6.2-0.2,14.4-0.5,24.4c-0.4,10-0.6,21.2-0.8,33.3
			c-0.2,12.1-0.3,25-0.3,38.5c0,13.6,0.2,27.1,0.5,40.6v25.5c0,7,0.1,14.4,0.3,22.3c0.2,8,0.6,14.9,1.3,20.8c0,2.1,0.9,4.3,2.6,6.8
			c2.4,2.4,6.3,5.5,11.7,9.4c5.3,3.8,12.8,6.8,22.2,8.9c1.1,0.4,2,0.2,2.9-0.5c0.9-0.7,1.1-1.5,0.8-2.6c-0.7-13.8-0.9-28.2-0.5-43
			c0.4-14.7,0.9-29.8,1.5-45.1c0.4-7,0.7-13.7,1.1-20.5c0.4-6.8,0.9-13.7,1.5-20.5c12.5-0.7,23.7-2.7,33.6-6
			c9.9-3.2,18.5-7.4,26.1-12.2c7.4-4.9,13.7-10.2,19-16.1s9.5-11.9,13-18.2c8.3-14.2,13.6-30.2,15.7-47.9c1.3-13.8,1-27.3-1.3-40.4
			c-2.3-13-6.9-24.6-13.7-34.9c-7-10.2-16.6-18.6-28.9-25.2c-12.3-6.6-27.7-10.2-46.1-11c-20.8-1.1-39.4,2.4-55.7,10.4
			c-16.3,8-30,18.5-40.9,31.8c-10.9,13.2-19,28.3-24.3,45.3c-5.3,17-7.2,34.6-5.7,52.6c0.7,4.5,2.4,8.1,5.3,10.9
			c2.8,2.8,6.7,5.8,11.7,9.1c5.1,3.3,10.9,5.3,17.5,6c2.4,0.7,4.5,0.2,6.2-1.5C248.3,190.5,249.2,188.4,249.2,186z"/>
		<path class="st0" d="M591.7,431.9c-1.1-6.8-3.7-12.7-8-17.8c-8.2-9.8-18.4-17.3-30.6-22.6c-1.5-1.1-3.2-1-5.1,0.3
			c-1.8,1.2-2.9,3.1-3,5.5c-0.9,15.1-2.1,30.7-3.6,47.1c-1.5,16.3-3.7,33.2-6.5,50.7c-0.9,5.8-1.9,12.2-3.2,19
			c-1.1,5.8-2.7,12.6-4.6,20.3c-1.9,7.7-4.1,16.1-6.7,25.2c-1,3-3,7.9-5.9,14.7c-3,6.9-6.8,13.7-11.6,20.5
			c-4.8,6.9-10.2,12.6-16.5,17.4c-6.3,4.8-13.4,6.5-21.2,5.3c-6.2-0.9-10.3-3.9-12.2-9.1c-2-5.2-2.6-11.7-1.9-19.8
			c0.8-8,2.7-17.1,5.7-27.2c3.2-10.2,6.6-20.7,10.3-31.6c3.8-10.9,7.9-21.9,12.4-32.8s8.5-21.4,11.8-31.3
			c6.2-16.8,10.2-32.5,12.1-47c1.8-14.5,1.5-27.5-1-39c-1.6-7.4-5.1-18.3-14.7-28.5c0,0-11.3-11.7-28.5-16.1
			c-5.5-1.4-10.6-1.5-10.6-1.5c-3.2-0.1-5.4,0.2-7.8,0.4c-3.5,0.4-8.3,1.1-14,2.8c-4.2,1.1-8.6,2.4-13.1,3.8
			c-6.3,2.1-12.2,4.4-17.5,6.7c-3.7-7.9-7.3-15-10.6-21.2s-6.1-11.5-8.5-15.9c-3.2-5.7-5.4-11.2-6.8-16.3c-1.3-5.2-2.3-9.8-2.7-13.8
			c-0.5-4.7-0.4-9.1,0-13.1c1-9.3,2.9-16.7,5.7-22.3c2.9-5.6,6.8-8.4,11.7-8.1c2.8,0.1,4.9,1.3,6.1,3.7c1.3,2.4,2.2,4.9,2.8,7.4
			c0.8,3.2,1.1,6.6,1,10.3c-0.1,3.4,0.1,6.5,0.6,9.4c0.5,2.5,1.3,4.7,2.6,6.6c1.1,1.9,3.2,2.8,5.9,2.6c1.5,0.1,2.8-0.4,3.8-1.2
			c1-0.9,1.8-1.8,2.5-2.7c0.7-1.2,1.1-2.6,1.1-4.1c0.5-4.3,0-8.9-1.3-13.6c-1.3-4.7-3.3-9-6-12.8s-6-7-10.1-9.5
			c-4.1-2.5-8.6-3.6-13.7-3.5c-9.1,0.3-16.1,4-21.4,11.3c-5.3,7.3-8.8,14.9-10.7,22.9c-0.8,3.4-1.5,8-2.4,13.8
			c-0.9,5.9-1.2,11.9-1.1,18.1c0,1,0.1,3.4,0.4,7.4c0.3,4,1,9.2,2,15.5c1,6.3,2.7,13.7,5,22.5s5.4,18.4,9.4,28.8
			c-12.2,10.4-21.6,21.1-28.1,32c-6.5,10.9-11.2,20.8-13.9,29.8c-3.5,10.4-5.2,20.8-5,31c-0.1,10.2,1.4,20.1,4.7,29.8
			c3.2,9.6,9.2,17.6,18,23.8c9.6,6.9,20.6,9.6,32.8,8.3c1.8,0.1,4.7-0.3,8.4-1.1c3.7-0.8,7.7-2.3,12-4.4c4.3-2.2,8.6-5.3,13-9.3
			c4.4-4,8-9.4,11.1-16.1c5.3-10.3,8.5-21.4,9.5-33.2c1-11.7,0.5-23.6-1.4-35.5c-1.9-11.8-4.9-23.6-8.9-35c-4-11.5-8.4-22.3-13-32.5
			c2.5-1.1,6.1-2.6,10.4-4.3c5.2-2,7.8-3.1,10.9-4c1.1-0.4,8-2.5,17.1-3.5c3.2-0.4,5.6-0.5,8.6,0.1c3,0.6,5.3,1.6,6,2
			c7,3.8,5.8,20.7,5.6,23.7c-1,12.7-3.5,28.2-7.7,46.2c-4.2,18.1-9.4,37.8-15.6,59c-6.2,21.2-12,41.7-17.5,61.6
			c-5.9,20.4-7.5,36.8-5.2,49.2c2.5,12.3,6.4,22.1,11.6,29.1c6.2,7.9,14,13.8,23.6,17.5c10.7,3.2,20.1,3.6,28.2,1.1
			c8.1-2.5,15.2-6.2,21.1-11.4c-7.1,15.9-15.3,30.8-24.6,44.7c-9.4,13.8-20.1,25.3-32.1,34.2c-9.1,6.3-18.5,11-28.3,13.9
			c-8.3,2.6-17.4,3.9-27.1,4.1c-9.7,0.2-18.9-3.2-27.5-9.7c-4.6-3.4-8-7.8-10.1-13.2c-1.9-4.7-2.7-10.8-2.4-18.5
			c0.3-7.7,3.2-17.3,8.7-28.5c3.1-6.5,6.9-11.8,11.5-16.2c4.6-4.4,9.2-7.9,13.8-10.8c4.6-2.8,9.2-4.9,13.5-6.3
			c4.4-1.4,7.8-2.4,10.4-3c1.5-0.4,2.5-1.1,2.9-2.4c0.4-1.1,0.2-2.2-0.7-3.1c-2.5-3.3-5.3-5.8-8.6-7.5c-3.2-1.7-6.5-2.9-9.9-3.6
			c-3.4-0.7-6.7-1.1-9.8-1.1c-3.2-0.1-5.8,0-8,0.3c-4.1,1-7.6,2.6-10.5,4.8c-6.3,4.8-11.3,10.1-14.9,16.1c-3.7,6-6.6,11.5-8.6,16.3
			c-2.6,5.8-4.3,11.6-5.2,17.6c-1.8,9.2-2.4,18.1-1.6,26.7c0.7,7.3,2.7,14.9,6,23c3.3,8.1,9.4,15.2,18,21.2
			c12.9,9.6,26,15.2,39.1,16.6c13.2,1.4,25.1,1.1,35.8-1.1c12.5-2.5,24.7-6.7,36.6-12.8c10.9-6.7,21-14.8,30.4-24.4
			c9.4-9.6,17.8-20.2,25.4-31.8c7.5-11.6,14.4-23.6,20.6-35.9c6.2-12.4,11.5-24.5,15.9-36.4c10.9-27.9,19.7-57.7,26.4-89.2
			c3.8-19.1,7-37.1,9.4-54.4C592.9,445.5,592.7,438.6,591.7,431.9z M382.8,498.4c-3.2,8.9-9.5,13.7-18.9,14.7
			c-6.2,0-11.9-1.2-17.2-3.7c-4.7-2.2-9.2-5.8-13.5-11s-7.3-12.7-8.9-22.6c-0.6-3.4-0.9-6.8-0.7-10c0.2-3.2,0.4-6.1,0.7-8.6
			c0.3-3.2,0.7-6,1-8.9c2.2-14.9,7.6-29.3,16.3-43.3c3.1-4.4,6.4-8.5,10-12.6c3.5-4,6.9-7.3,10-9.7c5.9,13.1,11.1,27,15.6,41.9
			c4.5,14.9,7.4,28.7,8.6,41.4C387,478.7,386,489.5,382.8,498.4z"/>
		<path class="st0" d="M305.8,528.3c-4.3-2.1-9.5-2.8-15.7-2c-3.7,0.7-7,1.8-9.7,3.4c-2.4,1.4-4.8,3.5-7,6.1
			c-2.2,2.7-3.4,6.1-3.8,10.6c-0.2,2.2-0.2,4.5,0.2,6.8c0.2,2,0.7,4.2,1.2,6.6c0.7,2.4,1.6,4.7,3,6.9c-1.6,0.6-3.2,1-5.1,1.1
			c-1.8,0.3-3.8,0.3-6,0.1c-3.2-0.1-5.7-0.6-7.7-1.3c-2-0.8-3.6-1.7-4.8-2.9c-1.2-1.1-2.1-2.3-2.6-3.4c-0.6-1.2-0.9-2.4-1.1-3.5
			c-0.2-1.2-0.3-2.4-0.2-3.4c0.1-0.9,0.4-1.6,0.8-2.5c0.4-0.8,1.1-1.2,2.2-1.5c1-0.1,1.8,0.2,2.6,1.1c0.8,0.8,1.4,1.8,2,3.2
			s1,2.9,1.1,4.6c0.3,1.7,0.4,3.5,0.4,5.3c0,0.3,0.2,0.5,0.5,0.5c0.5,0,1.4-0.1,2.7-0.3s2.5-0.8,3.6-1.6c1.1-0.8,1.9-1.7,2.1-3
			c0.3-1.2,0.1-2.5-0.4-3.6c-0.4-0.9-1-1.7-1.7-2.8c-0.8-1-1.7-1.9-2.9-2.8s-2.6-1.5-4.3-2c-1.7-0.5-3.6-0.6-5.8-0.4
			c-1.3,0.2-2.6,0.7-3.6,1.4c-0.9,0.7-1.6,1.6-2.5,2.9c-0.8,1.2-1.1,3-0.9,5.1c0.1,2.2,0.9,4.2,2.1,5.8c1.3,1.7,3,3.2,4.9,4.3
			c1.9,1.2,4.1,2.1,6.5,2.7c2.4,0.6,4.7,0.9,7.1,0.9c1.1-0.1,2.4-0.3,3.8-0.5c1.1-0.2,2.5-0.4,3.8-0.7c1.4-0.2,2.9-0.6,4.3-1
			c1.8,2.3,4,4.3,6.8,6c2.8,1.7,6.2,2.7,10.4,2.9c1.9,0.1,3.6-0.1,5.3-0.5c1.3-0.3,2.7-1,3.8-1.8c1.1-0.9,1.8-2.2,2-4
			c0.2-1.9,0-3.5-0.7-4.9c-0.6-1.1-1.5-2.2-3-3.2c-1.4-1-3.7-1.4-6.8-1.3c-2.5,0.1-4.8,0.4-6.9,1c-2,0.6-4,1.1-5.7,1.9
			c-0.9-1.8-1.6-3.8-2.2-6.2c-0.7-2.4-1.1-4.9-1.2-7.6c-0.2-3.4,0.1-6.6,1.1-9.3c0.9-2.7,2.2-5,3.8-6.8c1.7-1.8,3.6-3.2,5.9-4.3
			c2.3-1,4.7-1.5,7.2-1.6c2.5,0,5.1,0.5,7.7,1.4c2.7,1,5.2,2.3,7.5,4.1c2.4,1.8,4.6,3.9,6.6,6.3c2,2.4,3.7,5.1,5,8l2.5-1.2
			c-2.1-4.4-4.8-8.2-7.9-11.6C313.6,532.8,310.1,530.5,305.8,528.3z M287.5,564.3c1.7-0.5,3.2-0.7,4.8-0.7c1.8,0,3.3,0.7,4.6,1.9
			c1.2,1.2,1.9,2.7,1.9,4.1c0,1.1-0.2,1.9-0.7,2.7c-0.4,0.7-1.1,1.2-1.9,1.7c-0.9,0.6-2.2,0.8-3.9,0.7c-4.1-0.2-7.7-3-10.9-8.4
			C283.7,565.4,285.8,564.7,287.5,564.3z"/>
		<path class="st0" d="M229.2,271.1c-1.3-2.5-3.3-4.9-5.8-7.3c-2.5-2.3-6-3.7-10.4-4.3c-2.2-0.3-4.5-0.4-6.8-0.2
			c-2,0.1-4.2,0.5-6.6,1c-2.4,0.5-4.8,1.4-7,2.7c-0.5-1.6-0.8-3.3-1-5.1c-0.2-1.8-0.1-3.8,0.2-6c0.3-3.2,0.9-5.7,1.7-7.6
			c0.9-2,1.9-3.5,3.1-4.7c1.1-1.1,2.4-2,3.6-2.5c1.2-0.5,2.4-0.8,3.6-1c1.2-0.2,2.4-0.2,3.4,0c0.9,0.1,1.6,0.5,2.4,0.9
			c0.8,0.5,1.2,1.2,1.4,2.3c0.1,1-0.3,1.8-1.1,2.6s-1.9,1.3-3.2,1.8c-1.3,0.5-2.9,0.8-4.6,1c-1.7,0.2-3.5,0.2-5.3,0.2
			c-0.3,0-0.5,0.1-0.5,0.5c0,0.5,0,1.4,0.2,2.7s0.6,2.5,1.4,3.7c0.7,1.1,1.6,1.9,2.9,2.3c1.2,0.3,2.5,0.3,3.6-0.2
			c0.9-0.4,1.8-1,2.9-1.6c1.1-0.7,2-1.6,2.9-2.7c0.9-1.1,1.6-2.5,2.2-4.2c0.6-1.6,0.8-3.6,0.7-5.8c-0.2-1.3-0.6-2.6-1.2-3.7
			c-0.6-0.9-1.5-1.7-2.8-2.6s-2.9-1.2-5-1.1c-2.2,0-4.2,0.6-5.9,1.8c-1.7,1.2-3.2,2.8-4.6,4.7c-1.3,1.9-2.3,4-3,6.3
			c-0.7,2.3-1.1,4.7-1.2,7c0.1,1.1,0.2,2.4,0.3,3.8c0.2,1.1,0.3,2.5,0.5,3.9c0.1,1.4,0.4,2.9,0.8,4.4c-2.4,1.7-4.5,3.8-6.3,6.5
			c-1.8,2.7-3,6.1-3.3,10.3c-0.2,1.9-0.1,3.6,0.2,5.3c0.3,1.3,0.8,2.7,1.6,3.9c0.9,1.2,2.1,1.9,3.9,2.2c1.9,0.3,3.5,0.2,4.9-0.4
			c1.1-0.5,2.3-1.4,3.3-2.9c1.1-1.4,1.6-3.6,1.6-6.7c0-2.5-0.2-4.9-0.7-6.9c-0.5-2.1-1-4-1.6-5.8c1.8-0.8,3.9-1.4,6.3-1.9
			c2.4-0.5,5-0.9,7.7-0.9c3.4-0.1,6.5,0.5,9.2,1.4c2.7,1.1,4.9,2.4,6.6,4.2c1.7,1.8,3.1,3.8,4,6.1c0.9,2.3,1.3,4.7,1.3,7.3
			c-0.1,2.5-0.7,5.1-1.8,7.6c-1.1,2.6-2.6,5.1-4.5,7.3c-1.9,2.3-4.1,4.4-6.6,6.3c-2.5,1.9-5.3,3.4-8.3,4.6l1.1,2.6
			c4.5-1.9,8.5-4.3,11.8-7.4c2.9-2.6,5.4-6,7.7-10.2c2.3-4.2,3.2-9.4,2.8-15.5C231.7,277.4,230.7,274.1,229.2,271.1z M194.9,281.3
			c-0.1,1.8-0.8,3.2-2.1,4.5c-1.3,1.2-2.7,1.8-4.2,1.7c-1.1-0.1-1.9-0.3-2.7-0.8c-0.6-0.5-1.1-1.1-1.6-2c-0.5-0.9-0.7-2.2-0.5-4
			c0.4-4.1,3.3-7.5,8.9-10.5c0.8,2.5,1.2,4.6,1.7,6.2C194.8,278.3,194.9,279.9,194.9,281.3z"/>
	</g>
	<g id="Слой_2" class="st1">
		<g class="st2">
			<path class="st3" d="M4.8,159.4v-78c0,0-8-81,77-77"/>
			<path class="st3" d="M769.6,612.1v79.4c0,0,8.1,82.4-78.4,78.4"/>
			<path class="st3" d="M769.6,160.1v-78c0,0,8.1-81-78.4-77"/>
			<path class="st3" d="M5.2,603.7v83.6c0,0-8.7,86.9,84,82.6"/>
		</g>
	</g>
	<g id="Слой_3" class="st1">
		<path class="st4" d="M146,8.6H97C48.3,8.6,8.7,48.2,8.7,96.9v39.8h4V96.9c0-46.5,37.8-84.3,84.3-84.3h49V8.6z"/>
		<path class="st4" d="M12.7,676.7v-33.6c-1.3,0-2.7-0.1-4-0.1v33.6C8.7,725.4,48.3,765,97,765h49v-4H97
		C50.5,761,12.7,723.2,12.7,676.7z"/>
		<path class="st4" d="M761.1,634.8v42c0,46.5-37.8,84.3-84.3,84.3H624v4h52.9c48.7,0,88.3-39.6,88.3-88.3V635
		C763.8,634.9,762.5,634.8,761.1,634.8z"/>
		<path class="st4" d="M761.1,96.9v39.8h4V96.9c0-48.7-39.6-88.3-88.3-88.3h-50.5v4h50.5C723.3,12.6,761.1,50.4,761.1,96.9z"/>
	</g>
</svg>
